<?xml version="1.0" encoding="UTF-8"?>
<!DOCTYPE svg PUBLIC "-//W3C//DTD SVG 1.1//EN" "http://www.w3.org/Graphics/SVG/1.1/DTD/svg11.dtd">
<svg xmlns="http://www.w3.org/2000/svg" version="1.1" width="139px" height="98px" style="shape-rendering:geometricPrecision; text-rendering:geometricPrecision; image-rendering:optimizeQuality; fill-rule:evenodd; clip-rule:evenodd" xmlns:xlink="http://www.w3.org/1999/xlink">
<g><path style="opacity:1" fill="#fefefe" d="M -0.5,-0.5 C 3.83333,-0.5 8.16667,-0.5 12.5,-0.5C 6.78146,2.88504 2.44812,7.55171 -0.5,13.5C -0.5,8.83333 -0.5,4.16667 -0.5,-0.5 Z"/></g>
<g><path style="opacity:1" fill="#dbdbdb" d="M 12.5,-0.5 C 49.8333,-0.5 87.1667,-0.5 124.5,-0.5C 130.885,4.61991 135.552,10.9532 138.5,18.5C 138.5,34.1667 138.5,49.8333 138.5,65.5C 135.412,69.9195 131.579,70.5861 127,67.5C 125.696,51.5919 125.03,35.5919 125,19.5C 122.209,12.5193 117.042,9.18594 109.5,9.5C 80.5,8.16667 51.5,8.16667 22.5,9.5C 16.5554,10.9443 12.722,14.611 11,20.5C 10.3333,37.5 10.3333,54.5 11,71.5C 13.5416,79.0082 18.7083,83.0082 26.5,83.5C 22.479,86.8544 18.8123,90.521 15.5,94.5C 8.4723,90.8057 3.13897,85.4723 -0.5,78.5C -0.5,56.8333 -0.5,35.1667 -0.5,13.5C 2.44812,7.55171 6.78146,2.88504 12.5,-0.5 Z"/></g>
<g><path style="opacity:1" fill="#fefefe" d="M 124.5,-0.5 C 129.167,-0.5 133.833,-0.5 138.5,-0.5C 138.5,5.83333 138.5,12.1667 138.5,18.5C 135.552,10.9532 130.885,4.61991 124.5,-0.5 Z"/></g>
<g><path style="opacity:1" fill="#9cbfbe" d="M 22.5,9.5 C 51.5,8.16667 80.5,8.16667 109.5,9.5C 109.5,10.1667 109.167,10.5 108.5,10.5C 80.0049,9.50199 51.3382,9.16866 22.5,9.5 Z"/></g>
<g><path style="opacity:1" fill="#f6f6f7" d="M 109.5,9.5 C 117.042,9.18594 122.209,12.5193 125,19.5C 125.03,35.5919 125.696,51.5919 127,67.5C 131.579,70.5861 135.412,69.9195 138.5,65.5C 138.5,76.1667 138.5,86.8333 138.5,97.5C 92.1667,97.5 45.8333,97.5 -0.5,97.5C -0.5,91.1667 -0.5,84.8333 -0.5,78.5C 3.13897,85.4723 8.4723,90.8057 15.5,94.5C 21.1154,95.5735 26.7821,95.7401 32.5,95C 54.1667,75.8333 75.8333,56.6667 97.5,37.5C 98.3321,47.1495 98.8321,56.8162 99,66.5C 102.668,70.4044 106.335,70.4044 110,66.5C 110.667,50.8333 110.667,35.1667 110,19.5C 109.578,17.5743 108.411,16.5743 106.5,16.5C 105.737,15.7321 104.737,15.2321 103.5,15C 105.063,13.264 106.73,11.764 108.5,10.5C 109.167,10.5 109.5,10.1667 109.5,9.5 Z"/></g>
<g><path style="opacity:1" fill="#158a8b" d="M 22.5,9.5 C 51.3382,9.16866 80.0049,9.50199 108.5,10.5C 106.73,11.764 105.063,13.264 103.5,15C 104.737,15.2321 105.737,15.7321 106.5,16.5C 103.475,16.231 100.808,17.0643 98.5,19C 88.2955,28.3747 77.9621,37.5414 67.5,46.5C 56.3221,35.8254 44.6554,25.6588 32.5,16C 29.2106,15.2536 26.7106,16.4203 25,19.5C 24.031,35.5922 24.3644,51.5922 26,67.5C 28.4973,69.4782 31.3307,69.9782 34.5,69C 35.7014,68.0975 36.5348,66.9308 37,65.5C 37.1679,56.1489 37.6679,46.8155 38.5,37.5C 44.8801,43.5494 51.2134,49.5494 57.5,55.5C 47.1924,64.8048 36.8591,74.1382 26.5,83.5C 18.7083,83.0082 13.5416,79.0082 11,71.5C 10.3333,54.5 10.3333,37.5 11,20.5C 12.722,14.611 16.5554,10.9443 22.5,9.5 Z"/></g>
<g><path style="opacity:1" fill="#f7fbfb" d="M 67.5,46.5 C 64.1924,49.4715 60.859,52.4715 57.5,55.5C 51.2134,49.5494 44.8801,43.5494 38.5,37.5C 37.6679,46.8155 37.1679,56.1489 37,65.5C 36.5348,66.9308 35.7014,68.0975 34.5,69C 31.3307,69.9782 28.4973,69.4782 26,67.5C 24.3644,51.5922 24.031,35.5922 25,19.5C 26.7106,16.4203 29.2106,15.2536 32.5,16C 44.6554,25.6588 56.3221,35.8254 67.5,46.5 Z"/></g>
<g><path style="opacity:1" fill="#258b8b" d="M 29.5,21.5 C 34.1585,21.0146 35.4919,22.848 33.5,27C 28.7282,27.8104 27.3948,25.9771 29.5,21.5 Z"/></g>
<g><path style="opacity:1" fill="#20549c" d="M 106.5,16.5 C 108.411,16.5743 109.578,17.5743 110,19.5C 110.667,35.1667 110.667,50.8333 110,66.5C 106.335,70.4044 102.668,70.4044 99,66.5C 98.8321,56.8162 98.3321,47.1495 97.5,37.5C 75.8333,56.6667 54.1667,75.8333 32.5,95C 26.7821,95.7401 21.1154,95.5735 15.5,94.5C 18.8123,90.521 22.479,86.8544 26.5,83.5C 36.8591,74.1382 47.1924,64.8048 57.5,55.5C 60.859,52.4715 64.1924,49.4715 67.5,46.5C 77.9621,37.5414 88.2955,28.3747 98.5,19C 100.808,17.0643 103.475,16.231 106.5,16.5 Z"/></g>
<g><path style="opacity:1" fill="#ecf2f6" d="M 101.5,21.5 C 106.159,21.0146 107.492,22.848 105.5,27C 100.728,27.8104 99.3948,25.9771 101.5,21.5 Z"/></g>
<g><path style="opacity:1" fill="#271d1c" d="M 63.5,91.5 C 62.596,92.209 62.2627,93.209 62.5,94.5C 61.5,94.5 60.5,94.5 59.5,94.5C 59.5,93.1667 59.5,91.8333 59.5,90.5C 59.1856,85.8171 59.8523,81.3171 61.5,77C 63.1124,76.2797 64.6124,76.4464 66,77.5C 67,80.8333 68,84.1667 69,87.5C 69.692,84.0636 70.692,80.7302 72,77.5C 73.3876,76.4464 74.8876,76.2797 76.5,77C 78.0337,83.0297 78.7004,89.1964 78.5,95.5C 77.1667,95.5 75.8333,95.5 74.5,95.5C 74.6991,83.3199 73.3657,82.8199 70.5,94C 69.0563,94.7805 67.723,94.6139 66.5,93.5C 65.9818,90.6843 65.1485,88.0176 64,85.5C 63.5045,87.4727 63.3379,89.4727 63.5,91.5 Z"/></g>
<g><path style="opacity:1" fill="#241c1b" d="M 81.5,75.5 C 82.8333,75.5 84.1667,75.5 85.5,75.5C 85.5,76.8333 85.5,78.1667 85.5,79.5C 84.1667,79.5 82.8333,79.5 81.5,79.5C 81.5,78.1667 81.5,76.8333 81.5,75.5 Z"/></g>
<g><path style="opacity:1" fill="#241919" d="M 121.5,87.5 C 119.167,87.5 116.833,87.5 114.5,87.5C 114.5,88.8333 114.5,90.1667 114.5,91.5C 117.167,91.5 119.833,91.5 122.5,91.5C 123.791,92.5417 123.791,93.7083 122.5,95C 118.577,95.7927 114.744,95.626 111,94.5C 110.501,88.5092 110.334,82.5092 110.5,76.5C 114.5,76.5 118.5,76.5 122.5,76.5C 122.5,77.8333 122.5,79.1667 122.5,80.5C 119.833,80.5 117.167,80.5 114.5,80.5C 114.5,81.5 114.5,82.5 114.5,83.5C 117.167,83.5 119.833,83.5 122.5,83.5C 122.768,85.099 122.434,86.4324 121.5,87.5 Z"/></g>
<g><path style="opacity:1" fill="#1d1513" d="M 81.5,80.5 C 82.8221,80.33 83.9887,80.6634 85,81.5C 85.4992,86.1548 85.6658,90.8215 85.5,95.5C 84.1667,95.5 82.8333,95.5 81.5,95.5C 81.5,90.5 81.5,85.5 81.5,80.5 Z"/></g>
<g><path style="opacity:1" fill="#271d1c" d="M 94.5,88.5 C 94.719,87.325 94.3857,86.325 93.5,85.5C 92.5481,87.0453 92.2148,88.712 92.5,90.5C 92.5,92.1667 92.5,93.8333 92.5,95.5C 90.8333,95.5 89.1667,95.5 87.5,95.5C 88.6566,89.5583 89.4899,83.5583 90,77.5C 91.6667,76.1667 93.3333,76.1667 95,77.5C 96,80.8333 97,84.1667 98,87.5C 99,84.1667 100,80.8333 101,77.5C 102.667,76.1667 104.333,76.1667 106,77.5C 106.963,83.465 107.463,89.465 107.5,95.5C 106.167,95.5 104.833,95.5 103.5,95.5C 103.82,92.1016 103.487,88.7683 102.5,85.5C 101.686,88.4185 100.686,91.2519 99.5,94C 98.2161,94.6838 97.0495,94.5171 96,93.5C 95.6481,91.7525 95.1481,90.0858 94.5,88.5 Z"/></g>
<g><path style="opacity:1" fill="#a5a09e" d="M 94.5,88.5 C 93.8333,89.1667 93.1667,89.8333 92.5,90.5C 92.2148,88.712 92.5481,87.0453 93.5,85.5C 94.3857,86.325 94.719,87.325 94.5,88.5 Z"/></g>
<g><path style="opacity:1" fill="#b9b5b3" d="M 121.5,87.5 C 119.631,88.1646 117.631,88.8313 115.5,89.5C 117.969,90.1681 120.302,90.8347 122.5,91.5C 119.833,91.5 117.167,91.5 114.5,91.5C 114.5,90.1667 114.5,88.8333 114.5,87.5C 116.833,87.5 119.167,87.5 121.5,87.5 Z"/></g>
<g><path style="opacity:1" fill="#231918" d="M 127.5,76.5 C 130.187,76.3359 132.854,76.5026 135.5,77C 138.064,78.4813 138.064,79.9813 135.5,81.5C 133.484,80.2941 131.484,80.2941 129.5,81.5C 131.792,83.437 134.292,85.1037 137,86.5C 137.667,88.8333 137.667,91.1667 137,93.5C 133.744,95.4285 130.244,95.9285 126.5,95C 123.713,93.0934 123.88,91.5934 127,90.5C 129.349,91.9765 131.516,91.8098 133.5,90C 130.695,88.5211 128.195,86.6878 126,84.5C 125.109,81.5024 125.609,78.8357 127.5,76.5 Z"/></g>
<g><path style="opacity:1" fill="#746f6e" d="M 59.5,90.5 C 59.5,91.8333 59.5,93.1667 59.5,94.5C 60.5,94.5 61.5,94.5 62.5,94.5C 62.2627,93.209 62.596,92.209 63.5,91.5C 63.5,92.8333 63.5,94.1667 63.5,95.5C 61.8333,95.5 60.1667,95.5 58.5,95.5C 58.2155,93.5853 58.5489,91.9187 59.5,90.5 Z"/></g>
</svg>
